# xmcd
#
# Track frame offsets:
#	150
#	17595
#	31037
#	44352
#	58152
#	73042
#	82790
#	92802
#	107437
#	117942
#	131792
#	144340
#	159807
#	170475
#	182672
#	193862
#	208795
#	220422
#	229732
#	246402
#	257582
#	268640
#
# Disc length: 3858 seconds
#
# Revision: 3
# Processed by: cddbd v1.5.2PL0 Copyright (c) Steve Scherf et al.
# Submitted via: audiograbber 1.83.01
#
DISCID=340f1016
DTITLE=Various Artist - A Song For You (Reader's Digest) [Disc 2]
DYEAR=2000
DGENRE=Easy Listening
TTITLE0=Scott Fitzgerald and Yvonne Keeley - If I Had Words
TTITLE1=Glen Campbell - Gentle On My Mind
TTITLE2=Petula Clark - I Couldn't Live Without Your Love
TTITLE3=Joe Dolan - Lady In Blue
TTITLE4=Don Lane - You're Everything
TTITLE5=Perry Como - Caterina
TTITLE6=Maureen McGovern - We May Never Love Like This Again
TTITLE7=Tom Jones - Love Me Tonight
TTITLE8=Johnny Tillotson - Send Me The Pillow You Dream On
TTITLE9=Judy Stone - Hasta Manana
TTITLE10=The Captain and Tennille - The Way I Want To Touch You
TTITLE11=Wayne Newton - Daddy Don't You Walk So Fast
TTITLE12=Cliff Richard - The Minute You're Gone
TTITLE13=Bobby Vinton - Mr Lonely
TTITLE14=Johnny Farnham and Allison Durbin - Baby Without You
TTITLE15=Gary Puckett and The Union Gap - Woman, Woman
TTITLE16=Don Gibson - Sea Of Heartbreak
TTITLE17=Liv Maessen - Snowbird
TTITLE18=Morris Albert - Feelings
TTITLE19=Little Anthony and The Imperials - Goin' Out Of My Head
TTITLE20=Gene Pitney - True Love Never Runs Smooth
TTITLE21=Gladys Knight and The Pips - The Way We Were/Try To Remember
EXTD=Readers Digest 0350875-2
EXTT0=
EXTT1=
EXTT2=
EXTT3=
EXTT4=
EXTT5=
EXTT6=
EXTT7=
EXTT8=
EXTT9=
EXTT10=
EXTT11=
EXTT12=
EXTT13=
EXTT14=
EXTT15=
EXTT16=
EXTT17=
EXTT18=
EXTT19=
EXTT20=
EXTT21=
PLAYORDER=
